<?xml version="1.0" standalone="no"?>
<!DOCTYPE svg PUBLIC "-//W3C//DTD SVG 20010904//EN"
 "http://www.w3.org/TR/2001/REC-SVG-20010904/DTD/svg10.dtd">
<svg version="1.0" xmlns="http://www.w3.org/2000/svg"
 width="551.000000pt" height="453.000000pt" viewBox="0 0 551.000000 453.000000"
 preserveAspectRatio="xMidYMid meet">
<metadata>
Created by potrace 1.16, written by Peter Selinger 2001-2019
</metadata>
<g transform="translate(0.000000,453.000000) scale(0.100000,-0.100000)"
fill="#000000" stroke="none">
<path d="M250 2200 l0 -1630 375 0 374 0 3 949 c2 522 7 953 11 958 5 4 22 -8
39 -27 36 -43 318 -439 689 -970 91 -129 241 -343 334 -475 93 -132 188 -268
212 -301 56 -80 70 -92 87 -73 11 12 206 292 431 619 674 979 870 1262 1212
1748 l45 62 607 0 607 0 -4 373 c-2 204 -5 378 -7 385 -4 9 -172 12 -798 12
l-794 0 -68 -102 c-123 -186 -564 -825 -859 -1243 -104 -148 -225 -322 -269
-385 -90 -132 -113 -158 -125 -145 -5 6 -96 136 -202 290 -107 154 -291 420
-410 590 -298 427 -575 825 -639 918 l-53 77 -399 0 -399 0 0 -1630z"/>
<path d="M1840 3445 l0 -385 433 1 c237 1 491 4 564 8 l132 6 110 160 c325
475 392 578 379 586 -7 5 -374 9 -815 9 l-803 0 0 -385z"/>
<path d="M4028 2748 c-20 -16 -33 -35 -403 -563 -169 -241 -311 -453 -316
-469 -5 -17 -9 -282 -9 -589 l0 -557 388 2 387 3 3 1060 c1 583 0 1075 -3
1093 -6 34 -21 40 -47 20z"/>
</g>
</svg>
