<?xml version="1.0" standalone="no"?>
<!DOCTYPE svg PUBLIC "-//W3C//DTD SVG 20010904//EN"
 "http://www.w3.org/TR/2001/REC-SVG-20010904/DTD/svg10.dtd">
<svg version="1.0" xmlns="http://www.w3.org/2000/svg"
 width="1653.000000pt" height="1359.000000pt" viewBox="0 0 1653.000000 1359.000000"
 preserveAspectRatio="xMidYMid meet">
<metadata>
Created by potrace 1.16, written by Peter Selinger 2001-2019
</metadata>
<g transform="translate(0.000000,1359.000000) scale(0.100000,-0.100000)"
fill="#000000" stroke="none">
<path d="M750 6600 l0 -4890 1125 0 1125 0 0 2770 c0 2413 2 2770 15 2777 10
6 15 32 17 93 3 72 6 85 21 88 21 4 127 -98 127 -122 0 -9 27 -42 60 -74 33
-33 60 -68 60 -78 1 -10 14 -30 30 -44 17 -13 30 -32 30 -42 0 -10 20 -38 45
-61 25 -24 45 -52 45 -63 1 -10 14 -30 30 -44 17 -13 30 -32 30 -42 0 -10 20
-38 45 -61 25 -24 45 -52 45 -63 1 -10 14 -30 30 -44 17 -13 30 -32 30 -42 0
-10 20 -38 45 -61 25 -24 45 -52 45 -63 1 -10 14 -30 30 -44 17 -13 30 -32 30
-42 0 -10 20 -38 45 -61 25 -24 45 -52 45 -63 1 -10 14 -30 30 -44 17 -13 30
-33 30 -45 1 -11 14 -31 30 -45 17 -13 30 -32 30 -42 0 -10 20 -38 45 -61 25
-24 45 -52 45 -63 1 -10 14 -30 30 -44 17 -13 30 -33 30 -45 1 -11 14 -31 30
-45 17 -13 30 -32 30 -42 0 -10 20 -38 45 -61 25 -24 45 -52 45 -63 1 -10 14
-30 30 -44 17 -13 30 -33 30 -45 1 -11 14 -31 30 -45 17 -13 30 -32 30 -42 0
-10 20 -38 45 -61 25 -24 45 -52 45 -63 1 -10 14 -30 30 -44 17 -13 30 -32 30
-42 0 -10 20 -38 45 -61 25 -24 45 -52 45 -63 1 -10 14 -30 30 -44 17 -13 30
-32 30 -42 0 -10 20 -38 45 -61 25 -24 45 -52 45 -63 1 -10 14 -30 30 -44 17
-13 30 -33 30 -45 1 -11 14 -31 30 -45 17 -13 30 -33 30 -45 1 -11 14 -31 30
-45 17 -13 30 -32 30 -42 0 -10 20 -38 45 -61 25 -24 45 -52 45 -63 1 -10 14
-30 30 -44 17 -13 30 -33 30 -45 1 -11 14 -31 30 -45 17 -13 30 -32 30 -42 0
-10 20 -38 45 -61 25 -24 45 -52 45 -63 1 -10 14 -30 30 -44 17 -13 30 -33 30
-45 1 -11 14 -31 30 -45 17 -13 30 -32 30 -42 0 -10 20 -38 45 -61 25 -24 45
-52 45 -63 1 -10 14 -30 30 -44 17 -13 30 -33 30 -45 1 -11 14 -31 30 -45 17
-13 30 -32 30 -42 0 -10 20 -38 45 -61 25 -24 45 -51 45 -60 0 -10 20 -37 45
-60 25 -24 45 -52 45 -63 1 -10 14 -30 30 -44 17 -13 30 -33 30 -45 1 -11 14
-31 30 -45 17 -13 30 -33 30 -45 1 -11 14 -31 30 -45 17 -13 30 -32 30 -42 0
-10 20 -38 45 -61 25 -24 45 -52 45 -63 1 -10 14 -30 30 -44 17 -13 30 -33 30
-45 1 -11 14 -31 30 -45 17 -13 30 -32 30 -42 0 -10 20 -38 45 -61 25 -24 45
-52 45 -63 1 -10 14 -30 30 -44 17 -13 30 -32 30 -42 0 -10 20 -38 45 -61 25
-24 45 -52 45 -63 1 -10 14 -30 30 -44 17 -13 30 -33 30 -45 1 -11 14 -31 30
-45 17 -13 30 -32 30 -42 0 -10 20 -38 45 -61 25 -24 45 -52 45 -63 1 -10 14
-30 30 -44 17 -13 30 -32 30 -42 0 -10 20 -38 45 -61 25 -24 45 -52 45 -63 1
-10 14 -30 30 -44 17 -13 30 -33 30 -45 1 -11 14 -31 30 -45 17 -13 30 -32 30
-41 0 -24 126 -149 150 -149 24 0 90 65 90 88 0 10 13 29 30 42 16 14 29 34
30 45 0 12 13 32 30 45 16 14 29 34 30 44 0 11 20 39 45 63 25 23 45 51 45 61
0 10 13 29 30 42 16 14 29 34 30 45 0 12 13 32 30 45 16 14 29 34 30 44 0 11
20 39 45 63 25 23 45 51 45 61 0 10 13 29 30 42 16 14 29 34 30 45 0 12 13 32
30 45 16 14 29 34 30 45 0 12 13 32 30 45 16 14 29 34 30 45 0 12 13 32 30 45
16 14 29 34 30 44 0 11 20 39 45 63 25 23 45 51 45 61 0 10 13 29 30 42 16 14
29 34 30 45 0 12 13 32 30 45 16 14 29 34 30 44 0 11 20 39 45 63 25 23 45 51
45 61 0 10 13 29 30 42 16 14 29 34 30 45 0 12 13 32 30 45 16 14 29 34 30 45
0 12 13 32 30 45 16 14 29 34 30 44 0 11 20 39 45 63 25 23 45 51 45 61 0 10
13 29 30 42 16 14 29 35 30 48 0 12 7 25 15 28 8 4 15 15 15 27 0 11 20 40 45
64 25 23 45 51 45 61 0 10 13 29 30 42 16 14 29 34 30 44 0 11 20 39 45 63 25
23 45 51 45 61 0 10 13 29 30 42 16 14 29 34 30 45 0 12 13 32 30 45 16 14 29
34 30 45 0 12 13 32 30 45 16 14 29 34 30 45 0 12 13 32 30 45 16 14 29 34 30
44 0 11 20 39 45 63 25 23 45 51 45 61 0 10 13 29 30 42 16 14 29 34 30 45 0
12 13 32 30 45 16 14 29 34 30 45 0 12 13 32 30 45 16 14 29 34 30 45 0 12 13
32 30 45 16 14 29 34 30 44 0 11 20 39 45 63 25 23 45 51 45 61 0 10 13 29 30
42 16 14 29 34 30 45 0 12 13 32 30 45 16 14 29 34 30 45 0 12 13 32 30 45 16
14 29 34 30 44 0 11 20 39 45 63 25 23 45 51 45 61 0 10 13 29 30 42 16 14 29
34 30 45 0 12 13 32 30 45 16 14 29 34 30 45 0 12 13 32 30 45 16 14 29 34 30
45 0 12 13 32 30 45 16 14 29 34 30 45 0 12 13 32 30 45 16 14 29 34 30 44 0
11 20 39 45 63 25 23 45 51 45 61 0 10 13 29 30 42 16 14 29 34 30 45 0 12 13
32 30 45 16 14 29 34 30 45 0 12 13 32 30 45 16 14 29 34 30 44 0 11 20 39 45
63 25 23 45 51 45 61 0 10 13 29 30 42 16 14 29 34 30 45 0 12 13 32 30 45 16
14 29 34 30 45 0 12 13 32 30 45 16 14 29 34 30 45 0 12 13 32 30 45 16 14 29
34 30 45 0 12 13 32 30 45 16 14 29 34 30 44 0 11 20 39 45 63 25 23 45 51 45
61 0 10 13 29 30 42 16 14 29 34 30 45 0 12 13 32 30 45 16 14 29 34 30 44 0
11 20 39 45 63 25 23 45 51 45 61 0 10 13 29 30 42 16 14 29 34 30 44 0 11 20
39 45 63 25 23 45 51 45 61 0 10 13 29 30 42 16 14 29 34 30 45 0 12 13 32 30
45 16 14 29 34 30 44 0 11 20 39 45 63 25 23 45 51 45 61 0 10 13 29 30 42 16
14 29 34 30 45 0 12 13 32 30 45 16 14 29 34 30 44 0 11 20 39 45 63 25 23 45
51 45 61 0 10 13 29 30 42 16 14 29 34 30 45 0 12 13 32 30 45 16 14 29 34 30
45 0 12 13 32 30 45 16 14 29 34 30 44 0 11 20 39 45 63 25 23 45 51 45 61 0
10 13 29 30 42 16 14 29 34 30 44 0 11 20 39 45 63 25 23 45 50 45 60 0 9 20
36 45 60 25 23 45 51 45 61 0 10 13 29 30 42 16 14 29 34 30 45 0 12 13 32 30
45 16 14 29 33 30 44 0 10 17 36 39 57 l39 39 1821 0 1821 0 0 179 c0 150 -2
180 -15 185 -13 5 -15 120 -15 956 0 937 0 950 -20 970 -20 20 -33 20 -2395
20 -2362 0 -2375 0 -2395 -20 -11 -11 -20 -28 -20 -38 0 -10 -13 -29 -30 -42
-16 -14 -29 -34 -30 -45 0 -12 -13 -32 -30 -45 -16 -14 -29 -34 -30 -45 0 -12
-13 -32 -30 -45 -16 -14 -29 -34 -30 -45 0 -12 -13 -32 -30 -45 -16 -14 -29
-34 -30 -45 0 -12 -13 -32 -30 -45 -16 -14 -29 -34 -30 -45 0 -12 -13 -32 -30
-45 -16 -14 -29 -34 -30 -45 0 -12 -13 -32 -30 -45 -16 -14 -29 -34 -30 -45 0
-12 -13 -32 -30 -45 -16 -14 -29 -34 -30 -45 0 -12 -13 -32 -30 -45 -16 -14
-29 -34 -30 -44 0 -11 -20 -39 -45 -63 -25 -23 -45 -51 -45 -61 0 -10 -13 -29
-30 -42 -16 -14 -29 -34 -30 -45 0 -12 -13 -32 -30 -45 -16 -14 -29 -34 -30
-45 0 -12 -13 -32 -30 -45 -16 -14 -29 -34 -30 -44 0 -11 -20 -39 -45 -63 -25
-23 -45 -51 -45 -61 0 -10 -13 -29 -30 -42 -16 -14 -29 -34 -30 -45 0 -12 -13
-32 -30 -45 -16 -14 -29 -34 -30 -45 0 -12 -13 -32 -30 -45 -16 -14 -29 -34
-30 -45 0 -12 -13 -32 -30 -45 -16 -14 -29 -34 -30 -44 0 -11 -20 -39 -45 -63
-25 -23 -45 -51 -45 -61 0 -10 -13 -29 -30 -42 -16 -14 -29 -34 -30 -45 0 -12
-13 -32 -30 -45 -16 -14 -29 -34 -30 -45 0 -12 -13 -32 -30 -45 -16 -14 -29
-34 -30 -45 0 -12 -13 -32 -30 -45 -16 -14 -29 -34 -30 -44 0 -11 -20 -39 -45
-63 -25 -23 -45 -51 -45 -61 0 -10 -13 -29 -30 -42 -16 -14 -29 -34 -30 -45 0
-12 -13 -32 -30 -45 -16 -14 -29 -34 -30 -44 0 -11 -20 -39 -45 -63 -25 -23
-45 -51 -45 -61 0 -10 -13 -29 -30 -42 -16 -14 -29 -34 -30 -45 0 -12 -13 -32
-30 -45 -16 -14 -29 -34 -30 -45 0 -12 -13 -32 -30 -45 -16 -14 -29 -34 -30
-45 0 -12 -13 -32 -30 -45 -16 -14 -29 -34 -30 -44 0 -11 -20 -39 -45 -63 -25
-23 -45 -51 -45 -61 0 -10 -13 -29 -30 -42 -16 -14 -29 -34 -30 -44 0 -11 -20
-39 -45 -63 -25 -23 -45 -51 -45 -61 0 -10 -13 -29 -30 -42 -16 -14 -29 -34
-30 -45 0 -12 -13 -32 -30 -45 -16 -14 -29 -34 -30 -45 0 -12 -13 -32 -30 -45
-16 -14 -29 -34 -30 -44 0 -11 -20 -39 -45 -63 -25 -23 -45 -51 -45 -61 0 -10
-13 -29 -30 -42 -16 -14 -29 -34 -30 -45 0 -12 -13 -32 -30 -45 -16 -14 -29
-34 -30 -44 0 -11 -20 -39 -45 -63 -25 -23 -45 -51 -45 -61 0 -10 -13 -29 -30
-42 -16 -14 -29 -34 -30 -45 0 -12 -13 -32 -30 -45 -16 -14 -29 -34 -30 -44 0
-11 -20 -39 -45 -63 -25 -23 -45 -51 -45 -61 0 -10 -13 -29 -30 -42 -16 -14
-29 -34 -30 -44 0 -11 -20 -39 -45 -63 -25 -23 -45 -51 -45 -61 0 -10 -13 -29
-30 -42 -16 -14 -29 -34 -30 -45 0 -12 -13 -32 -30 -45 -16 -14 -29 -34 -30
-44 0 -11 -20 -39 -45 -63 -25 -23 -45 -50 -45 -60 0 -9 -20 -36 -45 -60 -25
-23 -45 -51 -45 -61 0 -10 -13 -29 -30 -42 -16 -14 -29 -34 -30 -45 0 -12 -13
-32 -30 -45 -16 -14 -29 -34 -30 -45 0 -12 -13 -32 -30 -45 -16 -14 -29 -34
-30 -45 0 -12 -13 -32 -30 -45 -16 -14 -29 -34 -30 -45 0 -12 -13 -32 -30 -45
-16 -14 -29 -34 -30 -44 0 -11 -20 -39 -45 -63 -25 -23 -45 -50 -45 -59 0 -20
-102 -124 -121 -124 -20 0 -59 44 -59 66 -1 11 -14 30 -30 44 -17 13 -30 33
-30 45 -1 11 -14 31 -30 45 -17 13 -30 32 -30 42 0 10 -20 38 -45 61 -25 24
-45 52 -45 63 -1 10 -14 30 -30 44 -17 13 -30 33 -30 45 -1 11 -14 31 -30 45
-17 13 -30 33 -30 45 -1 11 -14 31 -30 45 -17 13 -30 32 -30 42 0 10 -20 38
-45 61 -25 24 -45 52 -45 63 -1 10 -14 30 -30 44 -17 13 -30 33 -30 45 -1 11
-14 31 -30 45 -17 13 -30 32 -30 42 0 10 -20 38 -45 61 -25 24 -45 52 -45 63
-1 10 -14 30 -30 44 -17 13 -30 33 -30 45 -1 11 -14 31 -30 45 -17 13 -30 33
-30 45 -1 11 -14 31 -30 45 -17 13 -30 33 -30 45 -1 11 -14 31 -30 45 -17 13
-30 32 -30 42 0 10 -20 38 -45 61 -25 24 -45 52 -45 63 -1 10 -14 30 -30 44
-17 13 -30 33 -30 45 -1 11 -14 31 -30 45 -17 13 -30 33 -30 45 -1 11 -14 31
-30 45 -17 13 -30 32 -30 42 0 10 -20 38 -45 61 -25 24 -45 52 -45 63 -1 10
-14 30 -30 44 -17 13 -30 33 -30 45 -1 11 -14 31 -30 45 -17 13 -30 33 -30 45
-1 11 -14 31 -30 45 -17 13 -30 32 -30 42 0 10 -20 38 -45 61 -25 24 -45 52
-45 63 -1 10 -14 30 -30 44 -17 13 -30 32 -30 42 0 10 -20 38 -45 61 -25 24
-45 52 -45 63 -1 10 -14 30 -30 44 -17 13 -30 33 -30 45 -1 11 -14 31 -30 45
-17 13 -30 33 -30 45 -1 11 -14 31 -30 45 -17 13 -30 32 -30 42 0 10 -20 38
-45 61 -25 24 -45 52 -45 63 -1 10 -14 30 -30 44 -17 13 -30 33 -30 45 -1 11
-14 31 -30 45 -17 13 -30 32 -30 42 0 10 -20 38 -45 61 -25 24 -45 52 -45 63
-1 10 -14 30 -30 44 -17 13 -30 32 -30 42 0 10 -20 38 -45 61 -25 24 -45 52
-45 63 -1 10 -14 30 -30 44 -17 13 -30 33 -30 45 -1 11 -14 31 -30 45 -17 13
-30 33 -30 45 -1 11 -14 31 -30 45 -17 13 -30 32 -30 42 0 10 -20 38 -45 61
-25 24 -45 52 -45 63 -1 10 -14 30 -30 44 -17 13 -30 33 -30 45 -1 11 -14 31
-30 45 -17 13 -30 32 -30 42 0 10 -20 38 -45 61 -25 24 -45 52 -45 63 -1 10
-14 30 -30 44 -17 13 -30 33 -30 45 -1 11 -14 31 -30 45 -17 13 -30 33 -30 45
-1 11 -14 31 -30 45 -17 13 -30 32 -30 42 0 10 -20 38 -45 61 -25 24 -45 52
-45 63 -1 10 -14 30 -30 44 -17 13 -30 33 -30 45 -1 11 -14 31 -30 45 -17 13
-30 32 -30 42 0 10 -20 38 -45 61 -25 24 -45 52 -45 63 -1 10 -14 30 -30 44
-17 13 -30 33 -30 45 -1 11 -14 31 -30 45 -17 13 -30 32 -30 42 0 10 -20 38
-45 61 -25 24 -45 52 -45 63 -1 10 -14 30 -30 44 -17 13 -30 33 -30 45 -1 11
-14 31 -30 45 -17 13 -30 33 -30 45 -1 11 -14 31 -30 45 -17 13 -30 33 -30 45
-1 11 -14 31 -30 45 -17 13 -30 32 -30 42 0 10 -20 38 -45 61 -25 24 -45 51
-45 60 0 9 -9 26 -20 37 -20 20 -33 20 -1215 20 l-1195 0 0 -4890z"/>
<path d="M5520 10335 l0 -1155 1349 0 c1190 0 1350 2 1355 15 5 13 52 15 341
15 322 0 336 1 355 20 11 11 20 28 20 38 0 10 13 29 30 42 16 14 29 34 30 45
0 12 13 32 30 45 16 14 29 34 30 45 0 12 13 32 30 45 16 14 29 34 30 44 0 11
20 39 45 63 25 23 45 52 45 63 0 11 7 23 15 26 8 4 15 15 15 27 0 11 20 40 45
64 25 23 45 51 45 61 0 10 13 29 30 42 16 14 29 34 30 45 0 12 13 32 30 45 16
14 29 34 30 45 0 12 13 32 30 45 16 14 29 34 30 44 0 11 20 39 45 63 25 23 45
51 45 61 0 10 13 29 30 42 16 14 29 34 30 45 0 12 13 32 30 45 16 14 29 34 30
45 0 12 13 32 30 45 16 14 29 34 30 45 0 12 13 32 30 45 16 14 29 34 30 45 0
12 13 32 30 45 16 14 29 34 30 45 0 12 13 32 30 45 16 14 29 34 30 44 0 11 20
39 45 63 25 23 45 51 45 61 0 10 13 29 30 42 16 14 29 34 30 45 0 12 13 32 30
45 16 14 29 35 30 48 0 12 7 25 15 28 8 4 15 15 15 27 0 11 20 40 45 64 25 23
45 51 45 61 0 10 13 29 30 42 16 14 29 35 30 48 0 12 7 25 15 28 8 4 15 17 15
30 0 14 7 27 15 30 25 10 17 34 -10 34 -14 0 -28 7 -31 15 -5 13 -284 15
-2420 15 l-2414 0 0 -1155z"/>
<path d="M12116 8265 c-3 -8 -15 -15 -26 -15 -24 0 -60 -34 -60 -57 0 -9 -20
-36 -45 -60 -25 -23 -45 -51 -45 -61 0 -10 -13 -29 -30 -42 -16 -14 -29 -34
-30 -44 0 -11 -20 -39 -45 -63 -25 -23 -45 -51 -45 -61 0 -10 -13 -29 -30 -42
-16 -14 -29 -34 -30 -44 0 -11 -20 -39 -45 -63 -25 -23 -45 -51 -45 -61 0 -10
-13 -29 -30 -42 -16 -14 -29 -34 -30 -45 0 -12 -13 -32 -30 -45 -16 -14 -29
-34 -30 -44 0 -11 -20 -39 -45 -63 -25 -23 -45 -51 -45 -61 0 -10 -13 -29 -30
-42 -16 -14 -29 -34 -30 -45 0 -12 -13 -32 -30 -45 -16 -14 -29 -34 -30 -44 0
-11 -20 -39 -45 -63 -25 -23 -45 -51 -45 -61 0 -10 -13 -29 -30 -42 -16 -14
-29 -34 -30 -45 0 -12 -13 -32 -30 -45 -16 -14 -29 -34 -30 -44 0 -11 -20 -39
-45 -63 -25 -23 -45 -51 -45 -61 0 -10 -13 -29 -30 -42 -16 -14 -29 -34 -30
-44 0 -11 -20 -39 -45 -63 -25 -23 -45 -51 -45 -61 0 -10 -13 -29 -30 -42 -16
-14 -29 -34 -30 -45 0 -12 -13 -32 -30 -45 -16 -14 -29 -34 -30 -45 0 -12 -13
-32 -30 -45 -16 -14 -29 -34 -30 -44 0 -11 -20 -39 -45 -63 -25 -23 -45 -51
-45 -61 0 -10 -13 -29 -30 -42 -16 -14 -29 -34 -30 -45 0 -12 -13 -32 -30 -45
-16 -14 -29 -34 -30 -44 0 -11 -20 -39 -45 -63 -25 -23 -45 -51 -45 -61 0 -10
-13 -29 -30 -42 -16 -14 -29 -34 -30 -45 0 -12 -13 -32 -30 -45 -16 -14 -29
-34 -30 -44 0 -11 -20 -39 -45 -63 -25 -23 -45 -51 -45 -61 0 -10 -13 -29 -30
-42 -16 -14 -29 -34 -30 -44 0 -11 -20 -39 -45 -63 -25 -23 -45 -51 -45 -61 0
-10 -13 -29 -30 -42 -16 -14 -29 -35 -30 -48 0 -12 -7 -25 -15 -28 -11 -5 -15
-21 -15 -60 0 -39 -4 -56 -15 -60 -13 -5 -15 -204 -15 -1700 l0 -1694 1150 0
c1137 0 1150 0 1170 20 20 20 20 33 20 3239 0 2852 -2 3220 -15 3225 -10 3
-15 19 -15 46 l0 40 -44 0 c-30 0 -46 -5 -50 -15z"/>
</g>
</svg>
